<?xml version="1.0" encoding="UTF-8"?>
<!DOCTYPE svg PUBLIC "-//W3C//DTD SVG 1.1//EN" "http://www.w3.org/Graphics/SVG/1.1/DTD/svg11.dtd">
<svg xmlns="http://www.w3.org/2000/svg" version="1.1" width="567px" height="440px" style="shape-rendering:geometricPrecision; text-rendering:geometricPrecision; image-rendering:optimizeQuality; fill-rule:evenodd; clip-rule:evenodd" xmlns:xlink="http://www.w3.org/1999/xlink">
<g><path style="opacity:1" fill="#c4c4c4" d="M 344.5,21.5 C 344.762,20.0222 344.429,18.6888 343.5,17.5C 341.026,20.1929 338.359,22.5262 335.5,24.5C 338.89,20.4422 341.89,16.1089 344.5,11.5C 345.482,10.8592 346.482,10.1925 347.5,9.5C 348.155,13.8773 347.155,17.8773 344.5,21.5 Z"/></g>
<g><path style="opacity:1" fill="#f9f9f9" d="M 344.5,21.5 C 334.872,50.7205 324.872,79.7205 314.5,108.5C 313.85,108.804 313.183,109.137 312.5,109.5C 310.032,117.238 307.365,124.904 304.5,132.5C 301.921,138.234 300.587,144.234 300.5,150.5C 298.977,155.527 296.977,160.193 294.5,164.5C 270.498,164.667 246.498,164.5 222.5,164C 224.734,162.362 226.067,160.195 226.5,157.5C 238.796,141.87 251.463,126.536 264.5,111.5C 268.126,108.905 270.792,105.572 272.5,101.5C 283.025,87.7894 294.025,74.456 305.5,61.5C 312.454,54.9105 318.454,47.5771 323.5,39.5C 328.257,35.0793 332.257,30.0793 335.5,24.5C 338.359,22.5262 341.026,20.1929 343.5,17.5C 344.429,18.6888 344.762,20.0222 344.5,21.5 Z"/></g>
<g><path style="opacity:1" fill="#b6b6b6" d="M 323.5,39.5 C 318.454,47.5771 312.454,54.9105 305.5,61.5C 311.024,53.7903 317.024,46.457 323.5,39.5 Z"/></g>
<g><path style="opacity:0.525" fill="#656565" d="M 294.5,165.5 C 294.5,165.167 294.5,164.833 294.5,164.5C 296.977,160.193 298.977,155.527 300.5,150.5C 305.141,136.537 309.808,122.537 314.5,108.5C 324.872,79.7205 334.872,50.7205 344.5,21.5C 347.155,17.8773 348.155,13.8773 347.5,9.5C 346.482,10.1925 345.482,10.8592 344.5,11.5C 345.43,7.90736 347.763,6.2407 351.5,6.5C 333.518,59.4452 315.518,112.445 297.5,165.5C 296.5,165.5 295.5,165.5 294.5,165.5 Z"/></g>
<g><path style="opacity:1" fill="#b7b7b7" d="M 272.5,101.5 C 270.792,105.572 268.126,108.905 264.5,111.5C 266.688,107.793 269.355,104.46 272.5,101.5 Z"/></g>
<g><path style="opacity:0.404" fill="#5f5f5f" d="M 344.5,11.5 C 341.89,16.1089 338.89,20.4422 335.5,24.5C 332.257,30.0793 328.257,35.0793 323.5,39.5C 317.024,46.457 311.024,53.7903 305.5,61.5C 294.025,74.456 283.025,87.7894 272.5,101.5C 269.355,104.46 266.688,107.793 264.5,111.5C 251.463,126.536 238.796,141.87 226.5,157.5C 223.529,159.443 221.529,162.109 220.5,165.5C 218.972,165.483 218.472,164.816 219,163.5C 260.632,112.508 302.465,61.8414 344.5,11.5 Z"/></g>
<g><path style="opacity:1" fill="#d7d7d7" d="M 314.5,108.5 C 309.808,122.537 305.141,136.537 300.5,150.5C 300.587,144.234 301.921,138.234 304.5,132.5C 307.365,124.904 310.032,117.238 312.5,109.5C 313.183,109.137 313.85,108.804 314.5,108.5 Z"/></g>
<g><path style="opacity:0.791" fill="#c0c0c0" d="M 226.5,157.5 C 226.067,160.195 224.734,162.362 222.5,164C 246.498,164.5 270.498,164.667 294.5,164.5C 294.5,164.833 294.5,165.167 294.5,165.5C 269.646,166.046 244.979,166.046 220.5,165.5C 221.529,162.109 223.529,159.443 226.5,157.5 Z"/></g>
<g><path style="opacity:0.357" fill="#727272" d="M 65.5,174.5 C 50.8295,174.333 36.1629,174.5 21.5,175C 20.5562,177.719 20.2229,180.552 20.5,183.5C 19.7109,183.217 19.0442,182.717 18.5,182C 19.1667,179.333 19.8333,176.667 20.5,174C 33.3662,173.806 46.1995,173.306 59,172.5C 61.3461,172.99 63.5128,173.657 65.5,174.5 Z"/></g>
<g><path style="opacity:0.357" fill="#797979" d="M 120.5,174.5 C 105.833,174.5 91.1667,174.5 76.5,174.5C 77.8775,173.766 79.3775,173.099 81,172.5C 94.2647,173.158 107.431,173.825 120.5,174.5 Z"/></g>
<g><path style="opacity:0.356" fill="#777777" d="M 187.5,174.5 C 183.838,174.034 180.505,174.701 177.5,176.5C 180.505,174.701 183.838,174.034 187.5,174.5 Z"/></g>
<g><path style="opacity:0.361" fill="#757575" d="M 457.5,174.5 C 463.653,173.347 469.986,173.18 476.5,174C 477.61,177.049 478.277,180.216 478.5,183.5C 477.194,180.858 476.194,178.025 475.5,175C 469.509,174.501 463.509,174.334 457.5,174.5 Z"/></g>
<g><path style="opacity:0.357" fill="#7e7e7e" d="M 540.5,174.5 C 525.83,174.333 511.163,174.5 496.5,175C 495.556,177.719 495.223,180.552 495.5,183.5C 494.182,180.435 494.182,177.269 495.5,174C 510.672,173.172 525.672,173.339 540.5,174.5 Z"/></g>
<g><path style="opacity:1" fill="#ebebeb" d="M 65.5,174.5 C 68.3386,178.166 68.0053,181.666 64.5,185C 59.5111,185.499 54.5111,185.666 49.5,185.5C 49.6666,203.503 49.4999,221.503 49,239.5C 45.8704,242.421 42.3704,242.754 38.5,240.5C 39.1535,221.803 38.4869,203.47 36.5,185.5C 31.8215,185.666 27.1548,185.499 22.5,185C 21.5842,184.722 20.9175,184.222 20.5,183.5C 20.2229,180.552 20.5562,177.719 21.5,175C 36.1629,174.5 50.8295,174.333 65.5,174.5 Z"/></g>
<g><path style="opacity:1" fill="#f5f5f5" d="M 76.5,174.5 C 91.1667,174.5 105.833,174.5 120.5,174.5C 121.117,174.611 121.617,174.944 122,175.5C 122.667,197.167 122.667,218.833 122,240.5C 107.245,241.491 92.4116,241.824 77.5,241.5C 77.2172,240.711 76.7172,240.044 76,239.5C 75.5,218.169 75.3334,196.836 75.5,175.5C 75.5,174.833 75.8333,174.5 76.5,174.5 Z M 87.5,185.5 C 95.3516,185.175 103.018,185.508 110.5,186.5C 110.816,201.245 110.483,215.912 109.5,230.5C 101.747,230.799 94.0804,230.466 86.5,229.5C 86.184,214.755 86.5174,200.088 87.5,185.5 Z"/></g>
<g><path style="opacity:1" fill="#e6e6e6" d="M 173.5,182.5 C 174.906,182.027 175.573,181.027 175.5,179.5C 175.427,177.973 176.094,176.973 177.5,176.5C 180.505,174.701 183.838,174.034 187.5,174.5C 189.377,175.659 189.877,177.326 189,179.5C 182.916,188.665 177.083,197.998 171.5,207.5C 172.86,210.22 174.193,212.886 175.5,215.5C 175.427,217.027 176.094,218.027 177.5,218.5C 180,221.494 182,224.827 183.5,228.5C 183.427,230.027 184.094,231.027 185.5,231.5C 188.527,233.874 189.527,236.874 188.5,240.5C 185.216,241.657 181.882,241.824 178.5,241C 172.573,232.899 167.24,224.399 162.5,215.5C 161.758,214.713 160.925,214.047 160,213.5C 157.899,214.615 155.733,214.615 153.5,213.5C 152.558,213.608 151.725,213.941 151,214.5C 150.805,223.215 150.305,231.881 149.5,240.5C 146.216,241.657 142.882,241.824 139.5,241C 138.34,219.24 138.173,197.406 139,175.5C 142.667,172.833 146.333,172.833 150,175.5C 150.5,184.16 150.666,192.827 150.5,201.5C 154.182,201.665 157.848,201.499 161.5,201C 165.399,194.683 169.399,188.517 173.5,182.5 Z"/></g>
<g><path style="opacity:1" fill="#e0e0e0" d="M 200.5,183.5 C 200.264,180.391 200.597,177.391 201.5,174.5C 215.994,173.339 230.661,173.172 245.5,174C 248.366,177.943 248.032,181.61 244.5,185C 230.5,185.667 216.5,185.667 202.5,185C 201.584,184.722 200.918,184.222 200.5,183.5 Z"/></g>
<g><path style="opacity:0.999" fill="#efefef" d="M 276.5,182.5 C 276.427,184.027 277.094,185.027 278.5,185.5C 278.025,188.313 279.025,190.313 281.5,191.5C 283.674,194.515 285.341,197.849 286.5,201.5C 286.427,203.027 287.094,204.027 288.5,204.5C 291.084,208.666 293.417,213 295.5,217.5C 295.369,218.376 295.702,219.043 296.5,219.5C 297.499,205.182 297.833,190.849 297.5,176.5C 297.414,175.504 297.748,174.671 298.5,174C 301.167,173.333 303.833,173.333 306.5,174C 307.056,174.383 307.389,174.883 307.5,175.5C 307.5,197.167 307.5,218.833 307.5,240.5C 303.807,243.043 299.973,243.043 296,240.5C 288.821,226.807 281.654,213.14 274.5,199.5C 274.672,198.508 274.338,197.842 273.5,197.5C 273.631,196.624 273.298,195.957 272.5,195.5C 271.501,210.152 271.167,224.818 271.5,239.5C 270.306,240.777 268.64,241.444 266.5,241.5C 264.359,241.387 262.525,240.72 261,239.5C 260.333,218.167 260.333,196.833 261,175.5C 269.159,171.099 274.326,173.433 276.5,182.5 Z"/></g>
<g><path style="opacity:1" fill="#ededed" d="M 324.5,173.5 C 339.17,173.333 353.837,173.5 368.5,174C 369,174.5 369.5,175 370,175.5C 370.827,197.406 370.66,219.24 369.5,241C 354.156,241.833 338.822,241.666 323.5,240.5C 322.345,218.876 322.178,197.21 323,175.5C 323.717,174.956 324.217,174.289 324.5,173.5 Z M 358.5,201.5 C 350.826,201.666 343.159,201.5 335.5,201C 334.531,196.263 334.197,191.43 334.5,186.5C 342.414,185.533 350.414,185.199 358.5,185.5C 359.775,190.847 359.775,196.18 358.5,201.5 Z M 357.5,213.5 C 357.932,214.71 358.599,215.71 359.5,216.5C 359.967,221.4 359.301,226.067 357.5,230.5C 349.534,230.675 341.867,230.342 334.5,229.5C 334.195,224.238 334.529,219.072 335.5,214C 342.894,213.891 350.227,213.724 357.5,213.5 Z"/></g>
<g><path style="opacity:1" fill="#dedede" d="M 387.5,173.5 C 402.17,173.333 416.837,173.5 431.5,174C 434.366,177.943 434.032,181.61 430.5,185C 416.5,185.667 402.5,185.667 388.5,185C 386.046,184.057 385.046,182.224 385.5,179.5C 385.363,177.159 386.03,175.159 387.5,173.5 Z"/></g>
<g><path style="opacity:1" fill="#efefef" d="M 457.5,174.5 C 463.509,174.334 469.509,174.501 475.5,175C 476.194,178.025 477.194,180.858 478.5,183.5C 479.468,185.607 479.802,187.941 479.5,190.5C 479.753,194.04 480.419,197.373 481.5,200.5C 481.5,200.833 481.5,201.167 481.5,201.5C 481.676,204.727 482.343,207.727 483.5,210.5C 484.301,212.042 484.634,213.708 484.5,215.5C 484.205,217.735 484.539,219.735 485.5,221.5C 487.406,227.34 488.239,233.34 488,239.5C 484.89,241.592 481.723,241.925 478.5,240.5C 478.829,237.772 478.163,235.438 476.5,233.5C 474.193,224.996 472.526,216.329 471.5,207.5C 471.58,204.219 470.913,201.219 469.5,198.5C 468.755,195.12 467.755,191.786 466.5,188.5C 465.678,190.139 465.011,191.805 464.5,193.5C 462.825,196.507 462.159,199.84 462.5,203.5C 462.768,205.099 462.434,206.432 461.5,207.5C 460.419,210.627 459.753,213.96 459.5,217.5C 459.634,219.292 459.301,220.958 458.5,222.5C 457.549,223.919 457.216,225.585 457.5,227.5C 456.566,228.568 456.232,229.901 456.5,231.5C 456.5,231.833 456.5,232.167 456.5,232.5C 455.566,233.568 455.232,234.901 455.5,236.5C 455.714,238.144 455.38,239.644 454.5,241C 450.683,242.023 447.183,241.523 444,239.5C 443.985,233.404 444.818,227.404 446.5,221.5C 448.04,219.162 448.706,216.495 448.5,213.5C 448.5,213.167 448.5,212.833 448.5,212.5C 449.913,209.781 450.58,206.781 450.5,203.5C 452.009,194.115 453.842,184.781 456,175.5C 456.383,174.944 456.883,174.611 457.5,174.5 Z"/></g>
<g><path style="opacity:1" fill="#f1f1f1" d="M 540.5,174.5 C 543.408,178.24 543.075,181.74 539.5,185C 534.037,184.913 528.87,185.746 524,187.5C 523.667,205.167 523.333,222.833 523,240.5C 519.717,243.123 516.551,243.123 513.5,240.5C 514.154,221.803 513.487,203.47 511.5,185.5C 506.821,185.666 502.155,185.499 497.5,185C 496.584,184.722 495.918,184.222 495.5,183.5C 495.223,180.552 495.556,177.719 496.5,175C 511.163,174.5 525.83,174.333 540.5,174.5 Z"/></g>
<g><path style="opacity:0.482" fill="#828282" d="M 201.5,174.5 C 200.597,177.391 200.264,180.391 200.5,183.5C 199.842,182.207 199.508,180.707 199.5,179C 199.569,177.014 200.235,175.514 201.5,174.5 Z"/></g>
<g><path style="opacity:0.283" fill="#6b6b6b" d="M 75.5,175.5 C 75.3334,196.836 75.5,218.169 76,239.5C 76.7172,240.044 77.2172,240.711 77.5,241.5C 76.5041,241.586 75.6708,241.252 75,240.5C 74.1705,218.663 74.3372,196.996 75.5,175.5 Z"/></g>
<g><path style="opacity:0.369" fill="#6c6c6c" d="M 307.5,175.5 C 308.256,193.504 308.923,211.671 309.5,230C 309.621,233.782 308.954,237.282 307.5,240.5C 307.5,218.833 307.5,197.167 307.5,175.5 Z"/></g>
<g><path style="opacity:0.329" fill="#656565" d="M 175.5,179.5 C 175.573,181.027 174.906,182.027 173.5,182.5C 173.427,180.973 174.094,179.973 175.5,179.5 Z"/></g>
<g><path style="opacity:0.137" fill="#4c4c4c" d="M 276.5,182.5 C 277.906,182.973 278.573,183.973 278.5,185.5C 277.094,185.027 276.427,184.027 276.5,182.5 Z"/></g>
<g><path style="opacity:0.563" fill="#a1a1a1" d="M 36.5,185.5 C 38.4869,203.47 39.1535,221.803 38.5,240.5C 37.7109,240.217 37.0442,239.717 36.5,239C 37.8269,221.167 37.8269,203.333 36.5,185.5 Z"/></g>
<g><path style="opacity:0.578" fill="#ababab" d="M 511.5,185.5 C 513.487,203.47 514.154,221.803 513.5,240.5C 512.821,222.265 512.154,203.931 511.5,185.5 Z"/></g>
<g><path style="opacity:0.961" fill="#959595" d="M 278.5,185.5 C 279.492,187.456 280.492,189.456 281.5,191.5C 279.025,190.313 278.025,188.313 278.5,185.5 Z"/></g>
<g><path style="opacity:0.086" fill="#5b5b5b" d="M 479.5,190.5 C 480.806,193.142 481.806,195.975 482.5,199C 481.944,199.383 481.611,199.883 481.5,200.5C 480.419,197.373 479.753,194.04 479.5,190.5 Z"/></g>
<g><path style="opacity:0.278" fill="#6a6a6a" d="M 273.5,197.5 C 274.338,197.842 274.672,198.508 274.5,199.5C 272.84,212.635 271.84,225.969 271.5,239.5C 271.167,224.818 271.501,210.152 272.5,195.5C 273.298,195.957 273.631,196.624 273.5,197.5 Z"/></g>
<g><path style="opacity:0.29" fill="#6a6a6a" d="M 464.5,193.5 C 464.247,197.04 463.581,200.373 462.5,203.5C 462.159,199.84 462.825,196.507 464.5,193.5 Z"/></g>
<g><path style="opacity:0.081" fill="#575757" d="M 334.5,186.5 C 334.197,191.43 334.531,196.263 335.5,201C 343.159,201.5 350.826,201.666 358.5,201.5C 350.677,202.656 342.677,202.823 334.5,202C 333.176,196.734 333.176,191.567 334.5,186.5 Z"/></g>
<g><path style="opacity:0.851" fill="#959595" d="M 95.5,201.5 C 98.3646,201.055 100.865,201.722 103,203.5C 105.912,212.305 103.079,215.305 94.5,212.5C 93.0509,208.651 93.3842,204.984 95.5,201.5 Z"/></g>
<g><path style="opacity:1" fill="#fefffe" d="M 95.5,203.5 C 97.5,203.5 99.5,203.5 101.5,203.5C 101.5,206.5 101.5,209.5 101.5,212.5C 99.5,212.5 97.5,212.5 95.5,212.5C 95.5,209.5 95.5,206.5 95.5,203.5 Z"/></g>
<g><path style="opacity:1" fill="#e5e5e5" d="M 245.5,202.5 C 245.5,205.833 245.5,209.167 245.5,212.5C 230.833,213.833 216.167,213.833 201.5,212.5C 200.597,209.609 200.264,206.609 200.5,203.5C 200.611,202.883 200.944,202.383 201.5,202C 216.241,201.185 230.908,201.351 245.5,202.5 Z"/></g>
<g><path style="opacity:0.29" fill="#727272" d="M 286.5,201.5 C 287.906,201.973 288.573,202.973 288.5,204.5C 287.094,204.027 286.427,203.027 286.5,201.5 Z"/></g>
<g><path style="opacity:1" fill="#e5e5e5" d="M 431.5,202.5 C 431.5,205.833 431.5,209.167 431.5,212.5C 416.833,213.833 402.167,213.833 387.5,212.5C 386.597,209.609 386.264,206.609 386.5,203.5C 386.611,202.883 386.944,202.383 387.5,202C 402.241,201.185 416.908,201.351 431.5,202.5 Z"/></g>
<g><path style="opacity:0.082" fill="#474747" d="M 297.5,176.5 C 297.833,190.849 297.499,205.182 296.5,219.5C 295.702,219.043 295.369,218.376 295.5,217.5C 296.167,203.833 296.833,190.167 297.5,176.5 Z"/></g>
<g><path style="opacity:0.476" fill="#7f7f7f" d="M 200.5,203.5 C 200.264,206.609 200.597,209.609 201.5,212.5C 200.235,211.486 199.569,209.986 199.5,208C 199.508,206.293 199.842,204.793 200.5,203.5 Z"/></g>
<g><path style="opacity:0.791" fill="#929292" d="M 245.5,202.5 C 246.94,203.946 247.607,205.779 247.5,208C 247.693,210.008 247.026,211.508 245.5,212.5C 245.5,209.167 245.5,205.833 245.5,202.5 Z"/></g>
<g><path style="opacity:0.849" fill="#999999" d="M 431.5,202.5 C 432.94,203.946 433.607,205.779 433.5,208C 433.693,210.008 433.026,211.508 431.5,212.5C 431.5,209.167 431.5,205.833 431.5,202.5 Z"/></g>
<g><path style="opacity:0.18" fill="#5e5e5e" d="M 469.5,198.5 C 470.913,201.219 471.58,204.219 471.5,207.5C 470.087,204.781 469.42,201.781 469.5,198.5 Z"/></g>
<g><path style="opacity:0.031" fill="#5a5a5a" d="M 481.5,201.5 C 482.806,204.142 483.806,206.975 484.5,210C 484.272,210.399 483.938,210.565 483.5,210.5C 482.343,207.727 481.676,204.727 481.5,201.5 Z"/></g>
<g><path style="opacity:0.558" fill="#8a8a8a" d="M 386.5,203.5 C 386.264,206.609 386.597,209.609 387.5,212.5C 386.235,211.486 385.569,209.986 385.5,208C 385.508,206.293 385.842,204.793 386.5,203.5 Z"/></g>
<g><path style="opacity:0.612" fill="#717171" d="M 450.5,203.5 C 450.58,206.781 449.913,209.781 448.5,212.5C 448.42,209.219 449.087,206.219 450.5,203.5 Z"/></g>
<g><path style="opacity:0.22" fill="#616161" d="M 87.5,185.5 C 86.5174,200.088 86.184,214.755 86.5,229.5C 85.8336,222.341 85.5003,215.008 85.5,207.5C 85.5026,199.802 86.1693,192.468 87.5,185.5 Z"/></g>
<g><path style="opacity:0.408" fill="#535353" d="M 461.5,207.5 C 461.611,208.117 461.944,208.617 462.5,209C 461.806,212.025 460.806,214.858 459.5,217.5C 459.753,213.96 460.419,210.627 461.5,207.5 Z"/></g>
<g><path style="opacity:0.076" fill="#535353" d="M 110.5,186.5 C 111.166,193.659 111.5,200.992 111.5,208.5C 111.497,216.198 110.831,223.532 109.5,230.5C 110.483,215.912 110.816,201.245 110.5,186.5 Z"/></g>
<g><path style="opacity:0.043" fill="#6b6b6b" d="M 357.5,213.5 C 359.048,213.821 359.715,214.821 359.5,216.5C 358.599,215.71 357.932,214.71 357.5,213.5 Z"/></g>
<g><path style="opacity:0.322" fill="#636363" d="M 175.5,215.5 C 176.906,215.973 177.573,216.973 177.5,218.5C 176.094,218.027 175.427,217.027 175.5,215.5 Z"/></g>
<g><path style="opacity:0.157" fill="#555555" d="M 484.5,215.5 C 485.224,217.218 485.891,219.052 486.5,221C 486.272,221.399 485.938,221.565 485.5,221.5C 484.539,219.735 484.205,217.735 484.5,215.5 Z"/></g>
<g><path style="opacity:0.314" fill="#5e5e5e" d="M 448.5,213.5 C 448.706,216.495 448.04,219.162 446.5,221.5C 446.565,218.572 447.232,215.905 448.5,213.5 Z"/></g>
<g><path style="opacity:0.361" fill="#585858" d="M 458.5,222.5 C 458.938,222.435 459.272,222.601 459.5,223C 458.901,224.622 458.234,226.122 457.5,227.5C 457.216,225.585 457.549,223.919 458.5,222.5 Z"/></g>
<g><path style="opacity:0.373" fill="#5f5f5f" d="M 457.5,227.5 C 458.443,229.001 458.109,230.335 456.5,231.5C 456.232,229.901 456.566,228.568 457.5,227.5 Z"/></g>
<g><path style="opacity:0.563" fill="#ababab" d="M 86.5,229.5 C 94.0804,230.466 101.747,230.799 109.5,230.5C 105.849,231.165 102.015,231.499 98,231.5C 93.771,231.49 89.9377,230.823 86.5,229.5 Z"/></g>
<g><path style="opacity:0.365" fill="#6b6b6b" d="M 183.5,228.5 C 184.906,228.973 185.573,229.973 185.5,231.5C 184.094,231.027 183.427,230.027 183.5,228.5 Z"/></g>
<g><path style="opacity:0.558" fill="#a0a0a0" d="M 245.5,231.5 C 230.83,231.333 216.163,231.5 201.5,232C 200.556,234.719 200.223,237.552 200.5,240.5C 199.182,237.435 199.182,234.269 200.5,231C 215.672,230.172 230.672,230.339 245.5,231.5 Z"/></g>
<g><path style="opacity:0.562" fill="#a4a4a4" d="M 334.5,229.5 C 341.867,230.342 349.534,230.675 357.5,230.5C 353.849,231.165 350.015,231.499 346,231.5C 341.771,231.49 337.938,230.823 334.5,229.5 Z"/></g>
<g><path style="opacity:0.559" fill="#a1a1a1" d="M 431.5,231.5 C 416.83,231.333 402.163,231.5 387.5,232C 386.556,234.719 386.223,237.552 386.5,240.5C 385.182,237.435 385.182,234.269 386.5,231C 401.672,230.172 416.672,230.339 431.5,231.5 Z"/></g>
<g><path style="opacity:1" fill="#f7f7f7" d="M 245.5,231.5 C 247.026,232.492 247.693,233.992 247.5,236C 247.646,238.034 246.98,239.701 245.5,241C 230.328,241.828 215.328,241.661 200.5,240.5C 200.223,237.552 200.556,234.719 201.5,232C 216.163,231.5 230.83,231.333 245.5,231.5 Z"/></g>
<g><path style="opacity:1" fill="#f7f7f7" d="M 431.5,231.5 C 433.026,232.492 433.693,233.992 433.5,236C 433.646,238.034 432.98,239.701 431.5,241C 416.328,241.828 401.328,241.661 386.5,240.5C 386.223,237.552 386.556,234.719 387.5,232C 402.163,231.5 416.83,231.333 431.5,231.5 Z"/></g>
<g><path style="opacity:0.31" fill="#595959" d="M 456.5,232.5 C 456.938,232.435 457.272,232.601 457.5,233C 456.915,234.302 456.249,235.469 455.5,236.5C 455.232,234.901 455.566,233.568 456.5,232.5 Z"/></g>
<g><path style="opacity:0.71" fill="#939393" d="M 476.5,233.5 C 478.163,235.438 478.829,237.772 478.5,240.5C 477.388,238.401 476.721,236.067 476.5,233.5 Z"/></g>
<g><path style="opacity:0.373" fill="#6a6a6a" d="M 329.5,266.5 C 329.557,265.391 329.89,264.391 330.5,263.5C 333.516,260.48 336.183,257.146 338.5,253.5C 338.577,252.25 339.244,251.417 340.5,251C 315.493,250.167 290.493,250.334 265.5,251.5C 260.213,266.406 255.213,281.406 250.5,296.5C 248.986,298.364 247.653,300.364 246.5,302.5C 252.27,284.917 258.27,267.417 264.5,250C 283.184,249.795 301.851,249.295 320.5,248.5C 327.797,248.239 335.13,248.573 342.5,249.5C 342.046,252.14 340.879,254.473 339,256.5C 336.048,260.099 332.882,263.433 329.5,266.5 Z"/></g>
<g><path style="opacity:1" fill="#fafafa" d="M 338.5,253.5 C 334.755,255.918 332.088,259.251 330.5,263.5C 326.096,266.574 322.763,270.574 320.5,275.5C 316.096,278.574 312.763,282.574 310.5,287.5C 297.659,302.373 284.993,317.707 272.5,333.5C 267.119,338.606 262.452,344.272 258.5,350.5C 253.416,355.248 249.083,360.581 245.5,366.5C 243.187,370.143 240.52,373.476 237.5,376.5C 234.48,378.523 232.146,381.19 230.5,384.5C 229.25,386.932 227.75,389.266 226,391.5C 223.665,393.4 221.498,395.4 219.5,397.5C 218.351,397.209 217.684,396.376 217.5,395C 218.077,392.863 218.41,390.696 218.5,388.5C 218.5,388.167 218.5,387.833 218.5,387.5C 220.812,383.304 222.979,378.97 225,374.5C 226.478,370.234 227.645,365.901 228.5,361.5C 228.547,358.432 229.047,355.432 230,352.5C 235.815,337.333 241.315,322 246.5,306.5C 248.941,303.73 250.274,300.397 250.5,296.5C 255.213,281.406 260.213,266.406 265.5,251.5C 290.493,250.334 315.493,250.167 340.5,251C 339.244,251.417 338.577,252.25 338.5,253.5 Z"/></g>
<g><path style="opacity:0.894" fill="#b2b2b2" d="M 338.5,253.5 C 336.183,257.146 333.516,260.48 330.5,263.5C 332.088,259.251 334.755,255.918 338.5,253.5 Z"/></g>
<g><path style="opacity:0.902" fill="#b5b5b5" d="M 330.5,263.5 C 329.89,264.391 329.557,265.391 329.5,266.5C 326.14,269.194 323.14,272.194 320.5,275.5C 322.763,270.574 326.096,266.574 330.5,263.5 Z"/></g>
<g><path style="opacity:0.341" fill="#636363" d="M 329.5,266.5 C 327.118,271.248 323.784,275.248 319.5,278.5C 319.557,277.391 319.89,276.391 320.5,275.5C 323.14,272.194 326.14,269.194 329.5,266.5 Z"/></g>
<g><path style="opacity:0.949" fill="#bababa" d="M 320.5,275.5 C 319.89,276.391 319.557,277.391 319.5,278.5C 316.14,281.194 313.14,284.194 310.5,287.5C 312.763,282.574 316.096,278.574 320.5,275.5 Z"/></g>
<g><path style="opacity:0.184" fill="#777777" d="M 319.5,278.5 C 301.976,300.876 283.976,322.876 265.5,344.5C 267.584,340.664 269.917,336.997 272.5,333.5C 284.993,317.707 297.659,302.373 310.5,287.5C 313.14,284.194 316.14,281.194 319.5,278.5 Z"/></g>
<g><path style="opacity:1" fill="#b1b1b1" d="M 250.5,296.5 C 250.274,300.397 248.941,303.73 246.5,306.5C 246.5,305.167 246.5,303.833 246.5,302.5C 247.653,300.364 248.986,298.364 250.5,296.5 Z"/></g>
<g><path style="opacity:0.812" fill="#aaaaaa" d="M 272.5,333.5 C 269.917,336.997 267.584,340.664 265.5,344.5C 265.5,345.167 265.167,345.5 264.5,345.5C 262.5,347.167 260.5,348.833 258.5,350.5C 262.452,344.272 267.119,338.606 272.5,333.5 Z"/></g>
<g><path style="opacity:0.525" fill="#636363" d="M 246.5,302.5 C 246.5,303.833 246.5,305.167 246.5,306.5C 241.315,322 235.815,337.333 230,352.5C 229.047,355.432 228.547,358.432 228.5,361.5C 224.225,369.634 220.892,378.301 218.5,387.5C 218.5,387.833 218.5,388.167 218.5,388.5C 217.833,388.833 217.167,389.167 216.5,389.5C 225.725,360.155 235.725,331.155 246.5,302.5 Z"/></g>
<g><path style="opacity:0.11" fill="#5f5f5f" d="M 264.5,345.5 C 261.871,349.463 258.871,353.129 255.5,356.5C 256.5,354.5 257.5,352.5 258.5,350.5C 260.5,348.833 262.5,347.167 264.5,345.5 Z"/></g>
<g><path style="opacity:0.906" fill="#9c9c9c" d="M 258.5,350.5 C 257.5,352.5 256.5,354.5 255.5,356.5C 254.246,359.093 252.58,361.427 250.5,363.5C 248.589,364.075 246.922,365.075 245.5,366.5C 249.083,360.581 253.416,355.248 258.5,350.5 Z"/></g>
<g><path style="opacity:1" fill="#cdcdcd" d="M 228.5,361.5 C 227.645,365.901 226.478,370.234 225,374.5C 222.979,378.97 220.812,383.304 218.5,387.5C 220.892,378.301 224.225,369.634 228.5,361.5 Z"/></g>
<g><path style="opacity:0.922" fill="#afafaf" d="M 237.5,376.5 C 235.883,379.784 233.55,382.451 230.5,384.5C 232.146,381.19 234.48,378.523 237.5,376.5 Z"/></g>
<g><path style="opacity:1" fill="#cacaca" d="M 218.5,388.5 C 218.41,390.696 218.077,392.863 217.5,395C 217.684,396.376 218.351,397.209 219.5,397.5C 217.503,400.467 215.503,403.467 213.5,406.5C 212.344,402.45 213.177,398.783 216,395.5C 216.495,393.527 216.662,391.527 216.5,389.5C 217.167,389.167 217.833,388.833 218.5,388.5 Z"/></g>
<g><path style="opacity:0.286" fill="#626262" d="M 250.5,363.5 C 238.88,378.292 227.046,392.959 215,407.5C 213.416,408.861 211.582,409.528 209.5,409.5C 210.929,402.413 213.262,395.747 216.5,389.5C 216.662,391.527 216.495,393.527 216,395.5C 213.177,398.783 212.344,402.45 213.5,406.5C 215.503,403.467 217.503,400.467 219.5,397.5C 221.498,395.4 223.665,393.4 226,391.5C 227.75,389.266 229.25,386.932 230.5,384.5C 233.55,382.451 235.883,379.784 237.5,376.5C 240.52,373.476 243.187,370.143 245.5,366.5C 246.922,365.075 248.589,364.075 250.5,363.5 Z"/></g>
</svg>
